Coordinates
version=1
nRows=14
nColumns=40
inDegrees=yes

Units are S.I. units (second, meters, Newtons, ...)
Angles are in degrees.

endheader
time	pelvis_tilt	pelvis_list	pelvis_rotation	pelvis_tx	pelvis_ty	pelvis_tz	hip_flexion_r	hip_adduction_r	hip_rotation_r	knee_angle_r	knee_angle_r_beta	ankle_angle_r	subtalar_angle_r	mtp_angle_r	hip_flexion_l	hip_adduction_l	hip_rotation_l	knee_angle_l	knee_angle_l_beta	ankle_angle_l	subtalar_angle_l	mtp_angle_l	lumbar_extension	lumbar_bending	lumbar_rotation	arm_flex_r	arm_add_r	arm_rot_r	elbow_flex_r	pro_sup_r	wrist_flex_r	wrist_dev_r	arm_flex_l	arm_add_l	arm_rot_l	elbow_flex_l	pro_sup_l	wrist_flex_l	wrist_dev_l
     30.03992857	     -3.76610872	     -3.46419623	     11.31770639	      0.88732433	      0.92143556	      0.56406486	      9.07109358	      3.44284021	    -13.19137919	     21.43170008	     21.43170008	     18.06026673	     -7.57404423	     -2.10724988	     25.68587389	    -10.03699216	      4.54503394	     20.92269430	     20.92269430	      7.70305068	     -3.66424877	      4.11312283	     -8.41287177	      2.73732573	      2.92941297	     63.23405161	    -19.93736526	     -2.56707834	     94.57279583	     44.58996146	      0.00000000	      0.00000000	     -8.61888809	     -9.52738288	     15.44497604	     30.99662179	     44.67364688	      0.00000000	      0.00000000
     30.06485714	     -3.67624420	     -3.78387758	     11.21882028	      0.88678921	      0.92148375	      0.56028572	      8.19184495	      3.70308376	    -13.20519889	     20.47630311	     20.47630311	     18.02765986	     -7.00106699	     -2.18119217	     25.04456358	    -10.30712913	      3.92400941	     20.55993137	     20.55993137	      6.84155404	     -2.90702170	      1.51254226	     -8.45626392	      2.90921448	      2.86331328	     63.84774003	    -19.41078758	     -2.39224049	     94.04550699	     44.63891560	      0.00000000	      0.00000000	     -8.90947832	     -9.54759750	     16.38678207	     29.97348994	     44.57111506	      0.00000000	      0.00000000
     30.08978571	     -3.82357932	     -3.96816312	     11.16822660	      0.88594801	      0.92113744	      0.55599048	      8.00655084	      3.63450039	    -13.16920312	     20.42380618	     20.42380618	     18.11858383	     -7.00163374	     -2.19455973	     24.87095941	    -10.21728267	      3.90930546	     20.64945702	     20.64945702	      6.79628818	     -2.92709631	      1.50317624	     -8.26601743	      2.83900550	      2.94593546	     63.91228840	    -19.39280736	     -2.38998163	     94.07156054	     44.63868509	      0.00000000	      0.00000000	     -9.01496201	     -9.59920786	     16.38865720	     29.92888673	     44.56945638	      0.00000000	      0.00000000
     30.11471429	     -3.85463204	     -4.11525219	     10.99985124	      0.88551051	      0.92123882	      0.55137035	      7.25323512	      3.63356794	    -13.03686058	     19.56207577	     19.56207577	     18.09530802	     -6.58406677	     -2.04408965	     24.66436763	    -10.11587571	      3.87680364	     21.00362183	     21.00362183	      6.77141054	     -3.34026900	      1.12527664	     -8.28114438	      2.80850560	      3.09302109	     64.01455074	    -19.23551301	     -2.39334880	     94.03112320	     44.64755144	      0.00000000	      0.00000000	     -9.26802385	     -9.75131811	     16.54592298	     29.66093550	     44.54965796	      0.00000000	      0.00000000
     30.13964286	     -3.94459716	     -4.19142692	     10.83916874	      0.88509239	      0.92131275	      0.54634711	      6.74560353	      3.43084434	    -13.06807249	     19.11467214	     19.11467214	     18.08127628	     -6.11075964	     -2.10159377	     24.44839836	     -9.89798264	      3.91538866	     21.18988615	     21.18988615	      6.32488309	     -3.98679171	     -0.18993886	     -8.19456605	      2.73838495	      3.13272696	     64.17054176	    -18.90707253	     -2.42881848	     93.53265871	     44.70889471	      0.00000000	      0.00000000	     -9.21655927	     -9.89457549	     17.46489021	     29.00625942	     44.46395732	      0.00000000	      0.00000000
     30.16457143	     -4.15155992	     -4.21255069	     10.58732297	      0.88469074	      0.92138512	      0.54115406	      6.43151096	      3.14268148	    -12.88654536	     18.80750080	     18.80750080	     18.04690010	     -5.94413439	     -2.02776205	     24.38150500	     -9.64085702	      3.78699125	     21.50515558	     21.50515558	      6.56592929	     -4.25918550	     -0.32886969	     -8.03684760	      2.59898415	      3.32378086	     64.20440721	    -18.79955127	     -2.38284854	     93.53370615	     44.70878061	      0.00000000	      0.00000000	     -9.24785481	    -10.07382256	     17.45671570	     28.96623519	     44.46561152	      0.00000000	      0.00000000
     30.18950000	     -4.14883638	     -4.35948941	     10.37155427	      0.88455382	      0.92188757	      0.53565389	      5.61728642	      3.03830413	    -12.94983947	     17.95234313	     17.95234313	     17.86990076	     -5.21914962	     -1.87891548	     24.27277237	     -9.48021069	      3.93130731	     22.09591747	     22.09591747	      6.79584452	     -5.01073280	     -0.35521272	     -8.06591252	      2.66286742	      3.46046835	     64.21228939	    -18.71931748	     -2.38494660	     93.23381327	     44.72559964	      0.00000000	      0.00000000	     -9.15173009	    -10.22087692	     17.55699168	     28.90784163	     44.46075303	      0.00000000	      0.00000000
     30.21442857	     -4.25387345	     -4.36876900	     10.06733950	      0.88440395	      0.92230540	      0.52996947	      5.09478659	      2.70129243	    -12.91705396	     17.49293840	     17.49293840	     17.74209945	     -4.67692228	     -1.81237583	     24.15518129	     -9.17575225	      3.91988257	     22.56218145	     22.56218145	      7.10916921	     -5.63353054	     -0.38901459	     -8.01062995	      2.59854785	      3.62979892	     64.19076640	    -18.57485499	     -2.34282199	     92.92793888	     44.73845394	      0.00000000	      0.00000000	     -9.03615076	    -10.40224903	     17.61329508	     28.85181484	     44.45968182	      0.00000000	      0.00000000
     30.23935714	     -4.33689114	     -4.41445198	      9.75131452	      0.88432878	      0.92288084	      0.52403909	      4.48550317	      2.35473641	    -13.15319075	     16.90476104	     16.90476104	     17.55241355	     -3.65422531	     -1.81123443	     23.96886028	     -8.84398003	      4.09122293	     22.95286816	     22.95286816	      7.46301253	     -6.58117645	     -0.13744236	     -7.98546694	      2.61716832	      3.76929908	     64.28306159	    -18.39325616	     -2.31794728	     92.14869576	     44.77205081	      0.00000000	      0.00000000	     -8.82440735	    -10.60594870	     17.76063416	     28.75565263	     44.45330733	      0.00000000	      0.00000000
     30.26428571	     -4.47954880	     -4.38842814	      9.32808234	      0.88425583	      0.92335051	      0.51817321	      4.13643799	      1.92321058	    -13.00168587	     16.68204056	     16.68204056	     17.38295757	     -3.24225425	     -1.75656460	     23.82514285	     -8.52598783	      3.86487244	     23.36607930	     23.36607930	      7.79858050	     -7.12250044	     -0.17253917	     -7.90919342	      2.53436170	      3.94303405	     64.17294444	    -18.18907270	     -2.22969604	     91.83939633	     44.78102440	      0.00000000	      0.00000000	     -8.59344081	    -10.83787215	     17.76631923	     28.76578440	     44.45891903	      0.00000000	      0.00000000
     30.28921429	     -4.61462609	     -4.41223369	      8.90496172	      0.88417421	      0.92385003	      0.51218300	      3.80264932	      1.52751145	    -12.86981050	     16.47204285	     16.47204285	     17.14282914	     -2.76952590	     -1.68983478	     23.64581549	     -8.23411041	      3.71158010	     23.70716137	     23.70716137	      8.17039194	     -7.65575950	     -0.19494744	     -7.85675970	      2.53715276	      4.15768642	     64.03936245	    -18.01402943	     -2.15533602	     91.44079422	     44.79247471	      0.00000000	      0.00000000	     -8.31030255	    -11.10612874	     17.75199658	     28.79833175	     44.46721706	      0.00000000	      0.00000000
     30.31414286	     -4.62250424	     -4.44883368	      8.54122604	      0.88416609	      0.92467995	      0.50587250	      3.20607745	      1.05344869	    -13.45706251	     16.05524821	     16.05524821	     16.89073633	     -1.16748846	     -1.81538902	     23.23228031	     -7.82758793	      3.98125749	     23.88063316	     23.88063316	      8.55852318	     -8.84433244	      0.55945332	     -7.84005790	      2.57244676	      4.29717152	     64.19296563	    -17.99600883	     -2.24365745	     89.34888772	     44.87145135	      0.00000000	      0.00000000	     -7.92543642	    -11.30801306	     17.92193681	     28.80850170	     44.46105678	      0.00000000	      0.00000000
     30.33907143	     -4.80132477	     -4.57187769	      8.14620644	      0.88394344	      0.92514696	      0.49973372	      3.09608737	      0.72074254	    -13.29331705	     16.09308168	     16.09308168	     16.55375698	     -0.97329967	     -1.72289130	     23.02914691	     -7.62721914	      3.76388910	     24.01848382	     24.01848382	      8.89059034	     -9.09990881	      0.48541782	     -7.77998388	      2.69391910	      4.25101112	     64.03421724	    -17.88119390	     -2.18812685	     89.18766144	     44.87467174	      0.00000000	      0.00000000	     -7.66169333	    -11.49637300	     17.90161884	     28.85638494	     44.46851284	      0.00000000	      0.00000000
     30.36400000	     -4.86846001	     -4.43048018	      7.63534154	      0.88374703	      0.92583272	      0.49339093	      2.83372377	     -0.05093017	    -13.71879959	     16.19272153	     16.19272153	     16.47372094	      0.62385630	     -1.87913568	     22.68550290	     -7.09412611	      3.65491641	     24.31256049	     24.31256049	      9.54523304	     -9.94022123	      1.92908877	     -7.67041826	      2.58319835	      3.87459747	     64.35462528	    -16.71052369	     -1.90689678	     85.51345496	     45.00205357	      0.00000000	      0.00000000	     -7.43631825	    -11.82112041	     18.38949603	     28.88335087	     44.43357414	      0.00000000	      0.00000000
